<svg width="131" height="40" viewBox="0 0 131 40" fill="none" xmlns="http://www.w3.org/2000/svg">
<g clip-path="url(#clip0)">
<path d="M4.12416 10.5255H9.83405V33.0393C9.83405 37.1205 7.29871 40 3.21451 40C2.12417 40.0216 1.03785 39.8616 0 39.5267L0 34.7572C0.57629 34.8989 1.16746 34.9711 1.76091 34.9723C3.48187 34.9723 4.12416 34.0289 4.12416 32.48V10.5255Z" fill="#005BE9"/>
<path d="M6.96047 -2.88517e-07C7.42672 -0.000447509 7.88842 0.0917719 8.31872 0.271299C8.74902 0.450826 9.13936 0.714081 9.46704 1.04577C9.79472 1.37745 10.0532 1.77095 10.2275 2.2034C10.4018 2.63585 10.4884 3.09863 10.4823 3.56484C10.4552 4.48128 10.0721 5.35112 9.41434 5.98978C8.75654 6.62844 7.87578 6.98567 6.95894 6.98567C6.0421 6.98567 5.16133 6.62844 4.50353 5.98978C3.84573 5.35112 3.46265 4.48128 3.43558 3.56484C3.43149 2.62505 3.80028 1.72199 4.46106 1.05372C5.12185 0.38544 6.02069 0.00650027 6.96047 -2.88517e-07Z" fill="#005BE9"/>
<path d="M18.5002 24.705C18.6292 26.3798 19.8738 27.9256 22.3662 27.9256C24.2561 27.9256 25.1596 26.9361 25.1596 25.8205C25.1596 24.874 24.5143 24.1026 22.8824 23.7585L20.089 23.1131C16.0078 22.2096 14.1609 19.7634 14.1609 16.7978C14.1609 13.0178 17.5137 9.88015 22.065 9.88015C28.0822 9.88015 30.1166 13.7062 30.3594 15.9803L25.5899 17.0559C25.4178 15.8267 24.5143 14.2225 22.108 14.2225C20.6053 14.2225 19.4037 15.1229 19.4037 16.3245C19.4037 17.3571 20.175 18.0025 21.3367 18.2145L24.3453 18.8599C28.5124 19.7203 30.6145 22.2557 30.6145 25.3473C30.6145 28.783 27.9531 32.3079 22.4092 32.3079C16.0509 32.3079 13.8597 28.1838 13.6016 25.7775L18.5002 24.705Z" fill="#005BE9"/>
<path d="M34.7632 31.6533V0.559311H40.4762V31.6533H34.7632Z" fill="#005BE9"/>
<path d="M72.4186 10.5255H76.6719V15.5962H72.4186V24.4468C72.4186 26.2907 73.276 26.9054 74.9109 26.9054C75.5022 26.9101 76.0923 26.8534 76.6719 26.7363V31.4628C75.6391 31.8338 74.5447 32.0028 73.4481 31.9607C69.324 31.9607 66.7456 29.5022 66.7456 25.4302V4.2102H72.4186V10.5255Z" fill="#005BE9"/>
<path d="M83.5125 0.0430237C84.207 0.0436817 84.8859 0.249708 85.4637 0.63519C86.0415 1.02067 86.4924 1.5684 86.7597 2.20948C87.027 2.85056 87.0988 3.55636 86.966 4.23813C86.8332 4.91989 86.5018 5.54717 86.0134 6.04107C85.525 6.53497 84.9015 6.87344 84.2213 7.0139C83.5411 7.15436 82.8345 7.09054 82.1905 6.83048C81.5464 6.57041 80.9937 6.12571 80.6017 5.55231C80.2097 4.9789 79.9961 4.30239 79.9876 3.60787C79.9819 3.14151 80.0689 2.67866 80.2435 2.2462C80.4181 1.81373 80.6769 1.42025 81.0048 1.08861C81.3328 0.756968 81.7233 0.493763 82.1538 0.314273C82.5842 0.134782 83.0461 0.042582 83.5125 0.0430237Z" fill="#005BE9"/>
<path d="M86.3923 10.5255H80.6763V31.6626H86.3923V10.5255Z" fill="#005BE9"/>
<path d="M95.9619 21.094C95.9619 24.917 98.4542 27.0682 101.377 27.0682C104.299 27.0682 105.759 25.1321 106.232 23.5003L111.248 25.1752C110.304 28.7001 106.995 32.3079 101.368 32.3079C95.1383 32.3079 90.2397 27.5814 90.2397 21.094C90.2397 14.6066 95.0492 9.88015 101.195 9.88015C106.955 9.88015 110.218 13.4481 111.122 17.0129L106.023 18.7462C105.507 16.9852 104.18 15.1813 101.34 15.1813C98.4112 15.166 95.9619 17.2711 95.9619 21.094Z" fill="#005BE9"/>
<path d="M118.552 24.705C118.681 26.3798 119.926 27.9256 122.421 27.9256C124.311 27.9256 125.212 26.9361 125.212 25.8205C125.212 24.874 124.569 24.1026 122.938 23.7585L120.16 23.1131C116.075 22.2096 114.231 19.7634 114.231 16.7978C114.231 13.0178 117.581 9.88015 122.136 9.88015C128.15 9.88015 130.169 13.7062 130.433 15.9834L125.642 17.0559C125.47 15.8267 124.569 14.2225 122.163 14.2225C120.657 14.2225 119.456 15.1229 119.456 16.3245C119.456 17.3571 120.227 18.0025 121.389 18.2145L124.397 18.8599C128.565 19.7203 130.67 22.2557 130.67 25.3473C130.67 28.783 128.005 32.3079 122.464 32.3079C116.106 32.3079 113.915 28.1838 113.657 25.7775L118.552 24.705Z" fill="#005BE9"/>
<path d="M56.7425 25.2643L50.1045 39.9969H44.0474L50.6853 25.2643L44.0474 10.5286H50.1045L56.7425 25.2643Z" fill="#005BE9"/>
<path d="M59.49 19.1672L63.3837 10.5224H55.415L59.49 19.1672Z" fill="#2EC2FE"/>
</g>
<defs>
<clipPath id="clip0">
<rect width="130.67" height="40" fill="white"/>
</clipPath>
</defs>
</svg>
